<svg id="svg" version="1.1" xmlns="http://www.w3.org/2000/svg" xmlns:xlink="http://www.w3.org/1999/xlink" width="400" height="338.98305084745766" viewBox="0, 0, 400,338.98305084745766"><g id="svgg"><path id="path0" d="M81.525 45.931 C 72.616 48.292,66.527 57.847,70.508 63.220 C 70.646 63.407,70.955 64.169,71.194 64.915 C 72.096 67.724,73.770 69.610,76.610 71.016 C 77.263 71.339,78.226 72.005,78.751 72.496 L 79.706 73.390 188.243 73.490 C 300.934 73.594,300.028 73.602,300.959 72.486 C 301.271 72.113,302.244 71.440,303.123 70.989 C 305.701 69.668,306.957 68.341,307.992 65.845 C 308.513 64.588,309.044 63.407,309.172 63.220 C 313.053 57.557,307.002 48.209,297.966 45.909 C 295.261 45.220,84.126 45.241,81.525 45.931 M77.966 91.744 C 74.485 92.276,72.828 92.980,72.012 94.272 C 71.560 94.988,70.763 95.795,70.240 96.065 C 69.465 96.466,69.110 97.108,68.313 99.549 C 67.776 101.196,66.992 103.229,66.573 104.068 C 66.080 105.053,65.671 106.795,65.420 108.983 C 64.692 115.324,64.342 117.004,63.357 118.876 C 62.527 120.454,62.303 121.477,61.862 125.705 C 61.309 131.009,60.628 134.254,59.804 135.512 C 59.524 135.939,59.148 137.619,58.967 139.246 C 58.078 147.263,57.845 148.768,56.950 152.312 C 53.779 164.870,53.519 186.761,56.518 188.726 C 56.957 189.014,57.697 189.898,58.162 190.692 C 58.700 191.611,59.335 192.218,59.907 192.362 C 60.401 192.486,62.372 193.326,64.288 194.230 C 69.755 196.809,69.149 191.705,69.157 235.254 C 69.162 265.938,69.245 272.696,69.638 274.237 C 71.448 281.348,74.584 284.485,81.695 286.295 C 84.479 287.003,203.657 287.003,206.441 286.295 C 213.552 284.485,216.688 281.348,218.498 274.237 C 218.890 272.696,218.973 265.951,218.978 235.322 C 218.984 194.639,218.869 196.873,221.006 195.768 C 222.340 195.079,279.813 195.002,280.707 195.689 C 282.248 196.871,282.194 195.530,282.373 236.949 C 282.538 275.128,282.595 277.041,283.572 277.415 C 283.829 277.514,284.428 278.360,284.901 279.294 C 286.254 281.964,287.560 283.216,290.087 284.263 C 291.344 284.784,292.525 285.315,292.712 285.443 C 297.041 288.410,306.416 284.138,308.757 278.132 C 310.563 273.499,310.497 275.116,310.504 235.254 C 310.512 191.033,309.516 196.549,318.136 193.012 C 320.301 192.124,320.972 191.674,321.464 190.780 C 321.802 190.165,322.513 189.280,323.042 188.814 C 326.148 186.079,325.958 165.170,322.711 152.312 C 321.816 148.768,321.583 147.263,320.694 139.246 C 320.513 137.619,320.137 135.939,319.857 135.512 C 319.033 134.254,318.352 131.009,317.799 125.705 C 317.358 121.477,317.134 120.454,316.304 118.876 C 315.319 117.004,314.969 115.324,314.241 108.983 C 313.990 106.795,313.581 105.053,313.089 104.068 C 312.669 103.229,311.885 101.196,311.348 99.549 C 310.551 97.108,310.196 96.466,309.421 96.065 C 308.898 95.795,308.104 94.993,307.656 94.284 C 305.861 91.440,317.514 91.702,190.847 91.656 C 129.229 91.633,78.432 91.673,77.966 91.744 M189.424 195.942 C 190.660 197.093,190.678 197.554,190.678 227.702 L 190.678 256.930 189.906 257.702 L 189.134 258.475 144.068 258.475 L 99.002 258.475 98.230 257.702 L 97.458 256.930 97.458 227.702 C 97.458 197.554,97.476 197.093,98.712 195.942 C 99.877 194.857,188.259 194.857,189.424 195.942 " stroke="none" fill="#070707" fill-rule="evenodd"></path><path id="path1" d="M0.000 169.492 L 0.000 338.983 200.000 338.983 L 400.000 338.983 400.000 169.492 L 400.000 0.000 200.000 0.000 L 0.000 0.000 0.000 169.492 M300.976 41.611 C 301.544 42.031,302.815 42.546,303.801 42.755 C 306.012 43.225,307.026 43.920,309.817 46.882 C 312.639 49.876,312.723 50.007,313.176 52.131 C 313.386 53.117,313.901 54.388,314.321 54.956 C 315.534 56.596,315.440 61.559,314.153 63.896 C 313.640 64.826,313.213 65.894,313.205 66.268 C 313.164 68.086,309.812 72.344,308.132 72.713 C 307.520 72.847,306.912 73.346,306.493 74.055 C 305.327 76.031,311.490 75.932,189.831 75.932 C 68.171 75.932,74.334 76.031,73.168 74.055 C 72.749 73.346,72.141 72.847,71.529 72.713 C 69.849 72.344,66.497 68.086,66.456 66.268 C 66.448 65.894,66.021 64.826,65.508 63.896 C 64.214 61.547,64.127 56.596,65.351 54.941 C 65.777 54.365,66.297 53.018,66.506 51.947 C 67.102 48.898,72.722 43.347,75.815 42.753 C 76.962 42.532,78.087 42.127,78.315 41.852 C 79.216 40.767,82.315 40.738,190.395 40.792 L 299.943 40.847 300.976 41.611 M304.804 87.514 C 305.489 87.825,306.307 88.473,306.623 88.955 C 306.938 89.436,307.431 89.831,307.717 89.831 C 308.989 89.831,311.771 91.581,312.467 92.821 C 312.860 93.519,313.641 94.500,314.204 95.002 C 315.954 96.561,316.303 97.668,316.678 102.833 C 316.987 107.100,317.112 107.722,317.831 108.578 C 319.067 110.047,319.612 112.549,319.972 118.411 C 320.289 123.569,320.334 123.797,321.165 124.450 C 322.395 125.418,322.982 127.863,323.336 133.490 C 323.599 137.686,323.735 138.437,324.346 139.088 C 325.639 140.464,326.093 142.259,326.595 147.967 C 327.006 152.637,327.206 153.733,327.783 154.466 C 329.410 156.535,330.154 162.783,330.157 174.407 C 330.160 185.287,329.570 189.035,327.658 190.288 C 327.150 190.620,326.656 191.405,326.433 192.231 C 326.116 193.408,325.834 193.716,324.556 194.281 C 323.728 194.647,323.051 195.121,323.051 195.333 C 323.051 196.238,321.496 197.284,319.314 197.846 C 317.138 198.407,316.979 198.516,316.222 199.981 L 315.424 201.525 315.254 238.870 L 315.085 276.215 314.310 277.262 C 313.884 277.838,313.364 279.186,313.155 280.256 C 312.577 283.214,306.942 288.848,303.985 289.426 C 302.914 289.636,301.567 290.155,300.991 290.581 C 299.336 291.805,294.386 291.718,292.037 290.424 C 291.106 289.911,290.038 289.485,289.664 289.476 C 287.828 289.435,283.589 286.083,283.214 284.377 C 283.074 283.741,282.629 283.189,281.991 282.859 C 280.103 281.883,280.182 283.560,280.000 240.621 C 279.907 218.683,279.703 200.607,279.548 200.452 C 279.393 200.297,267.186 200.125,252.423 200.070 L 225.579 199.970 224.660 200.930 L 223.741 201.889 223.650 239.052 L 223.559 276.215 222.785 277.262 C 222.359 277.838,221.839 279.186,221.630 280.256 C 221.269 282.099,221.066 282.386,217.828 285.625 C 214.589 288.863,214.303 289.066,212.460 289.426 C 211.389 289.636,210.042 290.155,209.465 290.581 L 208.418 291.356 144.068 291.356 L 79.718 291.356 78.670 290.581 C 78.094 290.155,76.747 289.636,75.676 289.426 C 72.719 288.848,67.084 283.214,66.506 280.256 C 66.297 279.186,65.777 277.838,65.351 277.262 L 64.576 276.215 64.407 238.870 L 64.237 201.525 63.425 199.952 C 62.652 198.455,62.504 198.351,60.393 197.830 C 58.225 197.295,56.610 196.250,56.610 195.381 C 56.610 195.142,55.933 194.647,55.105 194.281 C 53.827 193.716,53.545 193.408,53.228 192.231 C 53.005 191.405,52.511 190.620,52.003 190.288 C 48.547 188.023,48.446 158.830,51.878 154.466 C 52.455 153.733,52.655 152.637,53.066 147.967 C 53.568 142.259,54.022 140.464,55.315 139.088 C 55.927 138.437,56.062 137.686,56.325 133.490 C 56.679 127.863,57.266 125.418,58.496 124.450 C 59.327 123.797,59.372 123.569,59.689 118.411 C 60.049 112.549,60.594 110.047,61.830 108.578 C 62.549 107.722,62.674 107.100,62.983 102.833 C 63.358 97.668,63.707 96.561,65.457 95.002 C 66.020 94.500,66.790 93.538,67.170 92.863 C 67.852 91.649,70.732 89.831,71.971 89.831 C 72.272 89.831,72.682 89.525,72.881 89.153 C 73.482 88.030,74.844 87.364,77.056 87.109 C 82.147 86.523,303.487 86.916,304.804 87.514 M101.452 200.243 C 100.151 200.365,100.006 200.473,99.826 201.460 C 99.519 203.147,99.795 255.502,100.113 255.819 C 100.482 256.189,187.653 256.188,188.023 255.819 C 188.392 255.450,188.392 200.821,188.023 200.452 C 187.748 200.177,104.301 199.975,101.452 200.243 " stroke="none" fill="#fbfbfb" fill-rule="evenodd"></path><path id="path2" d="M78.893 44.892 C 64.872 49.895,64.520 67.133,78.305 73.682 L 79.831 74.407 189.831 74.407 L 299.831 74.407 301.356 73.682 C 315.136 67.135,314.778 49.893,300.759 44.889 C 298.866 44.213,80.786 44.216,78.893 44.892 M297.966 45.909 C 307.002 48.209,313.053 57.557,309.172 63.220 C 309.044 63.407,308.513 64.588,307.992 65.845 C 306.957 68.341,305.701 69.668,303.123 70.989 C 302.244 71.440,301.271 72.113,300.959 72.486 C 300.028 73.602,300.934 73.594,188.243 73.490 L 79.706 73.390 78.751 72.496 C 78.226 72.005,77.263 71.339,76.610 71.016 C 73.770 69.610,72.096 67.724,71.194 64.915 C 70.955 64.169,70.646 63.407,70.508 63.220 C 66.527 57.847,72.616 48.292,81.525 45.931 C 84.126 45.241,295.261 45.220,297.966 45.909 M79.831 89.660 C 79.644 89.725,77.905 90.259,75.966 90.847 C 69.243 92.885,66.057 97.656,64.534 107.966 C 64.087 110.990,63.369 114.365,62.910 115.593 C 61.765 118.663,61.775 118.616,61.035 123.935 C 60.665 126.600,59.932 130.037,59.374 131.725 C 58.801 133.457,58.140 136.588,57.823 139.064 C 57.519 141.440,56.828 145.101,56.288 147.200 C 55.747 149.299,55.050 152.771,54.738 154.915 C 54.427 157.059,53.870 160.339,53.500 162.203 C 51.225 173.676,52.661 186.970,56.646 191.330 C 58.157 192.984,64.324 196.610,65.625 196.610 C 66.063 196.610,67.246 197.890,67.661 198.814 C 67.833 199.195,68.040 216.412,68.136 238.136 L 68.305 276.780 69.116 278.305 C 71.452 282.704,73.210 284.459,77.645 286.823 L 79.153 287.627 144.068 287.627 L 208.983 287.627 210.491 286.823 C 214.926 284.459,216.683 282.704,219.020 278.305 L 219.831 276.780 220.000 238.136 C 220.186 195.728,220.062 198.034,222.206 196.952 C 223.086 196.508,226.953 196.441,251.431 196.441 L 279.642 196.441 280.414 197.213 L 281.186 197.985 281.356 237.043 C 281.525 276.068,281.526 276.103,282.250 277.627 C 288.610 291.013,303.582 291.362,310.552 278.288 L 311.356 276.780 311.525 238.136 C 311.621 216.412,311.828 199.195,312.000 198.814 C 312.415 197.890,313.598 196.610,314.036 196.610 C 315.340 196.610,321.504 192.983,323.021 191.324 C 326.991 186.980,328.429 173.641,326.161 162.203 C 325.791 160.339,325.234 157.059,324.923 154.915 C 324.611 152.771,323.914 149.299,323.373 147.200 C 322.833 145.101,322.142 141.440,321.838 139.064 C 321.521 136.588,320.860 133.457,320.287 131.725 C 319.729 130.037,318.996 126.600,318.626 123.935 C 317.886 118.616,317.896 118.663,316.751 115.593 C 316.292 114.365,315.574 110.990,315.127 107.966 C 313.629 97.828,310.474 93.015,303.867 90.791 L 300.508 89.661 190.339 89.602 C 129.746 89.569,80.017 89.596,79.831 89.660 M304.862 92.345 C 306.457 92.868,307.000 93.244,307.656 94.284 C 308.104 94.993,308.898 95.795,309.421 96.065 C 310.196 96.466,310.551 97.108,311.348 99.549 C 311.885 101.196,312.669 103.229,313.089 104.068 C 313.581 105.053,313.990 106.795,314.241 108.983 C 314.969 115.324,315.319 117.004,316.304 118.876 C 317.134 120.454,317.358 121.477,317.799 125.705 C 318.352 131.009,319.033 134.254,319.857 135.512 C 320.137 135.939,320.513 137.619,320.694 139.246 C 321.583 147.263,321.816 148.768,322.711 152.312 C 325.958 165.170,326.148 186.079,323.042 188.814 C 322.513 189.280,321.802 190.165,321.464 190.780 C 320.972 191.674,320.301 192.124,318.136 193.012 C 309.516 196.549,310.512 191.033,310.504 235.254 C 310.497 275.116,310.563 273.499,308.757 278.132 C 306.416 284.138,297.041 288.410,292.712 285.443 C 292.525 285.315,291.344 284.784,290.087 284.263 C 287.560 283.216,286.254 281.964,284.901 279.294 C 284.428 278.360,283.829 277.514,283.572 277.415 C 282.595 277.041,282.538 275.128,282.373 236.949 C 282.194 195.530,282.248 196.871,280.707 195.689 C 279.813 195.002,222.340 195.079,221.006 195.768 C 218.869 196.873,218.984 194.639,218.978 235.322 C 218.973 265.951,218.890 272.696,218.498 274.237 C 216.688 281.348,213.552 284.485,206.441 286.295 C 203.657 287.003,84.479 287.003,81.695 286.295 C 74.584 284.485,71.448 281.348,69.638 274.237 C 69.245 272.696,69.162 265.938,69.157 235.254 C 69.149 191.705,69.755 196.809,64.288 194.230 C 62.372 193.326,60.401 192.486,59.907 192.362 C 59.335 192.218,58.700 191.611,58.162 190.692 C 57.697 189.898,56.957 189.014,56.518 188.726 C 53.519 186.761,53.779 164.870,56.950 152.312 C 57.845 148.768,58.078 147.263,58.967 139.246 C 59.148 137.619,59.524 135.939,59.804 135.512 C 60.628 134.254,61.309 131.009,61.862 125.705 C 62.303 121.477,62.527 120.454,63.357 118.876 C 64.342 117.004,64.692 115.324,65.420 108.983 C 65.671 106.795,66.080 105.053,66.573 104.068 C 66.992 103.229,67.776 101.196,68.313 99.549 C 69.110 97.108,69.465 96.466,70.240 96.065 C 70.763 95.795,71.560 94.988,72.012 94.272 C 72.828 92.980,74.485 92.276,77.966 91.744 C 81.778 91.161,303.036 91.747,304.862 92.345 M98.712 195.942 C 97.476 197.093,97.458 197.554,97.458 227.702 L 97.458 256.930 98.230 257.702 L 99.002 258.475 144.068 258.475 L 189.134 258.475 189.906 257.702 L 190.678 256.930 190.678 227.702 C 190.678 197.554,190.660 197.093,189.424 195.942 C 188.259 194.857,99.877 194.857,98.712 195.942 M188.889 197.213 L 189.661 197.985 189.753 227.013 L 189.845 256.042 189.101 256.835 L 188.356 257.627 144.068 257.627 L 99.779 257.627 99.035 256.835 L 98.290 256.042 98.382 227.040 C 98.487 194.105,98.232 196.770,101.308 196.513 C 102.173 196.441,122.059 196.395,145.499 196.411 L 188.117 196.441 188.889 197.213 " stroke="none" fill="#6c6c6c" fill-rule="evenodd"></path><path id="path3" d="M80.476 43.407 C 67.057 45.158,62.029 64.588,73.119 71.831 C 74.014 72.416,75.241 73.257,75.845 73.700 C 78.015 75.290,75.357 75.254,189.831 75.254 C 304.304 75.254,301.646 75.290,303.816 73.700 C 304.420 73.257,305.647 72.416,306.542 71.831 C 317.781 64.491,312.619 45.172,298.945 43.397 C 295.889 43.000,83.517 43.010,80.476 43.407 M300.759 44.889 C 314.778 49.893,315.136 67.135,301.356 73.682 L 299.831 74.407 189.831 74.407 L 79.831 74.407 78.305 73.682 C 64.520 67.133,64.872 49.895,78.893 44.892 C 80.786 44.216,298.866 44.213,300.759 44.889 M77.154 89.005 C 76.428 89.272,75.665 89.623,75.459 89.785 C 75.253 89.947,74.315 90.331,73.375 90.637 C 71.495 91.250,67.115 95.342,66.614 96.954 C 66.470 97.418,66.056 98.217,65.694 98.730 C 64.750 100.070,64.462 101.260,63.746 106.780 C 63.284 110.339,62.827 112.396,62.090 114.237 C 61.346 116.095,60.924 118.011,60.521 121.356 C 59.966 125.975,59.484 128.361,58.982 128.983 C 58.410 129.691,57.628 133.211,57.100 137.458 C 56.798 139.881,56.181 142.932,55.728 144.237 C 55.275 145.542,54.449 149.497,53.894 153.025 C 53.338 156.553,52.540 160.596,52.120 162.008 C 50.978 165.847,50.946 183.370,52.077 185.763 C 52.473 186.602,53.104 187.993,53.479 188.855 C 54.891 192.100,58.703 195.230,63.549 197.122 C 65.937 198.054,66.297 198.306,66.485 199.177 C 66.603 199.723,66.722 216.492,66.750 236.441 C 66.801 273.116,66.905 276.450,68.079 279.104 C 69.755 282.893,74.272 287.059,78.163 288.406 C 80.148 289.092,201.573 289.498,207.045 288.836 C 211.817 288.259,215.541 285.950,218.409 281.789 C 221.383 277.477,221.148 281.013,221.348 237.554 C 221.516 201.139,221.559 198.973,222.131 198.402 C 223.069 197.463,279.759 197.279,280.215 198.213 C 280.376 198.543,280.590 216.432,280.689 237.966 C 280.883 280.074,280.815 278.610,282.668 280.772 C 283.183 281.373,283.954 282.443,284.382 283.151 C 285.923 285.702,290.633 288.384,294.252 288.771 C 301.027 289.495,306.214 287.186,309.935 281.789 C 312.907 277.478,312.672 281.031,312.873 237.390 C 312.988 212.239,313.170 198.571,313.390 198.372 C 313.576 198.204,314.797 197.652,316.102 197.144 C 323.069 194.435,327.149 189.569,328.202 182.712 C 328.811 178.745,328.335 164.653,327.499 161.879 C 327.107 160.581,326.330 156.615,325.772 153.065 C 325.214 149.515,324.387 145.542,323.934 144.237 C 323.480 142.932,322.863 139.881,322.561 137.458 C 322.033 133.211,321.251 129.691,320.679 128.983 C 320.177 128.361,319.695 125.975,319.140 121.356 C 318.737 118.011,318.315 116.095,317.571 114.237 C 316.834 112.396,316.377 110.339,315.915 106.780 C 315.199 101.260,314.911 100.070,313.967 98.730 C 313.605 98.217,313.191 97.415,313.047 96.949 C 312.631 95.608,308.221 91.266,306.818 90.816 C 306.144 90.600,304.754 90.023,303.729 89.533 L 301.864 88.644 190.169 88.582 C 94.059 88.529,78.290 88.588,77.154 89.005 M303.867 90.791 C 310.474 93.015,313.629 97.828,315.127 107.966 C 315.574 110.990,316.292 114.365,316.751 115.593 C 317.896 118.663,317.886 118.616,318.626 123.935 C 318.996 126.600,319.729 130.037,320.287 131.725 C 320.860 133.457,321.521 136.588,321.838 139.064 C 322.142 141.440,322.833 145.101,323.373 147.200 C 323.914 149.299,324.611 152.771,324.923 154.915 C 325.234 157.059,325.791 160.339,326.161 162.203 C 328.429 173.641,326.991 186.980,323.021 191.324 C 321.504 192.983,315.340 196.610,314.036 196.610 C 313.598 196.610,312.415 197.890,312.000 198.814 C 311.828 199.195,311.621 216.412,311.525 238.136 L 311.356 276.780 310.552 278.288 C 303.582 291.362,288.610 291.013,282.250 277.627 C 281.526 276.103,281.525 276.068,281.356 237.043 L 281.186 197.985 280.414 197.213 L 279.642 196.441 251.431 196.441 C 226.953 196.441,223.086 196.508,222.206 196.952 C 220.062 198.034,220.186 195.728,220.000 238.136 L 219.831 276.780 219.020 278.305 C 216.683 282.704,214.926 284.459,210.491 286.823 L 208.983 287.627 144.068 287.627 L 79.153 287.627 77.645 286.823 C 73.210 284.459,71.452 282.704,69.116 278.305 L 68.305 276.780 68.136 238.136 C 68.040 216.412,67.833 199.195,67.661 198.814 C 67.246 197.890,66.063 196.610,65.625 196.610 C 64.324 196.610,58.157 192.984,56.646 191.330 C 52.661 186.970,51.225 173.676,53.500 162.203 C 53.870 160.339,54.427 157.059,54.738 154.915 C 55.050 152.771,55.747 149.299,56.288 147.200 C 56.828 145.101,57.519 141.440,57.823 139.064 C 58.140 136.588,58.801 133.457,59.374 131.725 C 59.932 130.037,60.665 126.600,61.035 123.935 C 61.775 118.616,61.765 118.663,62.910 115.593 C 63.369 114.365,64.087 110.990,64.534 107.966 C 66.057 97.656,69.243 92.885,75.966 90.847 C 77.905 90.259,79.644 89.725,79.831 89.660 C 80.017 89.596,129.746 89.569,190.339 89.602 L 300.508 89.661 303.867 90.791 M101.308 196.513 C 98.232 196.770,98.487 194.105,98.382 227.040 L 98.290 256.042 99.035 256.835 L 99.779 257.627 144.068 257.627 L 188.356 257.627 189.101 256.835 L 189.845 256.042 189.753 227.013 L 189.661 197.985 188.889 197.213 L 188.117 196.441 145.499 196.411 C 122.059 196.395,102.173 196.441,101.308 196.513 M188.693 198.220 C 189.164 199.182,189.250 255.915,188.781 256.480 C 188.198 257.183,99.938 257.183,99.354 256.480 C 98.886 255.915,98.972 199.182,99.443 198.220 C 99.895 197.298,188.241 197.298,188.693 198.220 " stroke="none" fill="#848484" fill-rule="evenodd"></path><path id="path4" d="M79.788 41.045 C 79.206 41.215,78.543 41.578,78.315 41.852 C 78.087 42.127,76.962 42.532,75.815 42.753 C 72.722 43.347,67.102 48.898,66.506 51.947 C 66.297 53.018,65.777 54.365,65.351 54.941 C 64.127 56.596,64.214 61.547,65.508 63.896 C 66.021 64.826,66.448 65.894,66.456 66.268 C 66.497 68.086,69.849 72.344,71.529 72.713 C 72.141 72.847,72.749 73.346,73.168 74.055 C 74.334 76.031,68.171 75.932,189.831 75.932 C 311.490 75.932,305.327 76.031,306.493 74.055 C 306.912 73.346,307.520 72.847,308.132 72.713 C 309.812 72.344,313.164 68.086,313.205 66.268 C 313.213 65.894,313.640 64.826,314.153 63.896 C 315.440 61.559,315.534 56.596,314.321 54.956 C 313.901 54.388,313.386 53.117,313.176 52.131 C 312.723 50.007,312.639 49.876,309.817 46.882 C 307.026 43.920,306.012 43.225,303.801 42.755 C 302.815 42.546,301.544 42.031,300.976 41.611 L 299.943 40.847 190.395 40.792 C 125.502 40.760,80.416 40.863,79.788 41.045 M298.945 43.397 C 312.619 45.172,317.781 64.491,306.542 71.831 C 305.647 72.416,304.420 73.257,303.816 73.700 C 301.646 75.290,304.304 75.254,189.831 75.254 C 75.357 75.254,78.015 75.290,75.845 73.700 C 75.241 73.257,74.014 72.416,73.119 71.831 C 62.029 64.588,67.057 45.158,80.476 43.407 C 83.517 43.010,295.889 43.000,298.945 43.397 M77.056 87.109 C 74.844 87.364,73.482 88.030,72.881 89.153 C 72.682 89.525,72.272 89.831,71.971 89.831 C 70.732 89.831,67.852 91.649,67.170 92.863 C 66.790 93.538,66.020 94.500,65.457 95.002 C 63.707 96.561,63.358 97.668,62.983 102.833 C 62.674 107.100,62.549 107.722,61.830 108.578 C 60.594 110.047,60.049 112.549,59.689 118.411 C 59.372 123.569,59.327 123.797,58.496 124.450 C 57.266 125.418,56.679 127.863,56.325 133.490 C 56.062 137.686,55.927 138.437,55.315 139.088 C 54.022 140.464,53.568 142.259,53.066 147.967 C 52.655 152.637,52.455 153.733,51.878 154.466 C 50.251 156.535,49.507 162.783,49.504 174.407 C 49.501 185.287,50.091 189.035,52.003 190.288 C 52.511 190.620,53.005 191.405,53.228 192.231 C 53.545 193.408,53.827 193.716,55.105 194.281 C 55.933 194.647,56.610 195.142,56.610 195.381 C 56.610 196.250,58.225 197.295,60.393 197.830 C 62.504 198.351,62.652 198.455,63.425 199.952 L 64.237 201.525 64.407 238.870 L 64.576 276.215 65.351 277.262 C 65.777 277.838,66.297 279.186,66.506 280.256 C 67.084 283.214,72.719 288.848,75.676 289.426 C 76.747 289.636,78.094 290.155,78.670 290.581 L 79.718 291.356 144.068 291.356 L 208.418 291.356 209.465 290.581 C 210.042 290.155,211.389 289.636,212.460 289.426 C 215.417 288.848,221.052 283.214,221.630 280.256 C 221.839 279.186,222.359 277.838,222.785 277.262 L 223.559 276.215 223.650 239.052 L 223.741 201.889 224.660 200.930 L 225.579 199.970 252.423 200.070 C 267.186 200.125,279.393 200.297,279.548 200.452 C 279.703 200.607,279.907 218.683,280.000 240.621 C 280.182 283.560,280.103 281.883,281.991 282.859 C 282.629 283.189,283.074 283.741,283.214 284.377 C 283.589 286.083,287.828 289.435,289.664 289.476 C 290.038 289.485,291.106 289.911,292.037 290.424 C 294.386 291.718,299.336 291.805,300.991 290.581 C 301.567 290.155,302.914 289.636,303.985 289.426 C 306.942 288.848,312.577 283.214,313.155 280.256 C 313.364 279.186,313.884 277.838,314.310 277.262 L 315.085 276.215 315.254 238.870 L 315.424 201.525 316.222 199.981 C 316.979 198.516,317.138 198.407,319.314 197.846 C 321.496 197.284,323.051 196.238,323.051 195.333 C 323.051 195.121,323.728 194.647,324.556 194.281 C 325.834 193.716,326.116 193.408,326.433 192.231 C 326.656 191.405,327.150 190.620,327.658 190.288 C 331.114 188.023,331.215 158.830,327.783 154.466 C 327.206 153.733,327.006 152.637,326.595 147.967 C 326.093 142.259,325.639 140.464,324.346 139.088 C 323.735 138.437,323.599 137.686,323.336 133.490 C 322.982 127.863,322.395 125.418,321.165 124.450 C 320.334 123.797,320.289 123.569,319.972 118.411 C 319.612 112.549,319.067 110.047,317.831 108.578 C 317.112 107.722,316.987 107.100,316.678 102.833 C 316.303 97.668,315.954 96.561,314.204 95.002 C 313.641 94.500,312.860 93.519,312.467 92.821 C 311.771 91.581,308.989 89.831,307.717 89.831 C 307.431 89.831,306.938 89.436,306.623 88.955 C 305.196 86.777,315.129 86.953,191.356 86.908 C 129.644 86.886,78.209 86.976,77.056 87.109 M303.729 89.533 C 304.754 90.023,306.144 90.600,306.818 90.816 C 308.221 91.266,312.631 95.608,313.047 96.949 C 313.191 97.415,313.605 98.217,313.967 98.730 C 314.911 100.070,315.199 101.260,315.915 106.780 C 316.377 110.339,316.834 112.396,317.571 114.237 C 318.315 116.095,318.737 118.011,319.140 121.356 C 319.695 125.975,320.177 128.361,320.679 128.983 C 321.251 129.691,322.033 133.211,322.561 137.458 C 322.863 139.881,323.480 142.932,323.934 144.237 C 324.387 145.542,325.214 149.515,325.772 153.065 C 326.330 156.615,327.107 160.581,327.499 161.879 C 328.335 164.653,328.811 178.745,328.202 182.712 C 327.149 189.569,323.069 194.435,316.102 197.144 C 314.797 197.652,313.576 198.204,313.390 198.372 C 313.170 198.571,312.988 212.239,312.873 237.390 C 312.672 281.031,312.907 277.478,309.935 281.789 C 306.214 287.186,301.027 289.495,294.252 288.771 C 290.633 288.384,285.923 285.702,284.382 283.151 C 283.954 282.443,283.183 281.373,282.668 280.772 C 280.815 278.610,280.883 280.074,280.689 237.966 C 280.590 216.432,280.376 198.543,280.215 198.213 C 279.759 197.279,223.069 197.463,222.131 198.402 C 221.559 198.973,221.516 201.139,221.348 237.554 C 221.148 281.013,221.383 277.477,218.409 281.789 C 215.541 285.950,211.817 288.259,207.045 288.836 C 201.573 289.498,80.148 289.092,78.163 288.406 C 74.272 287.059,69.755 282.893,68.079 279.104 C 66.905 276.450,66.801 273.116,66.750 236.441 C 66.722 216.492,66.603 199.723,66.485 199.177 C 66.297 198.306,65.937 198.054,63.549 197.122 C 58.703 195.230,54.891 192.100,53.479 188.855 C 53.104 187.993,52.473 186.602,52.077 185.763 C 50.946 183.370,50.978 165.847,52.120 162.008 C 52.540 160.596,53.338 156.553,53.894 153.025 C 54.449 149.497,55.275 145.542,55.728 144.237 C 56.181 142.932,56.798 139.881,57.100 137.458 C 57.628 133.211,58.410 129.691,58.982 128.983 C 59.484 128.361,59.966 125.975,60.521 121.356 C 60.924 118.011,61.346 116.095,62.090 114.237 C 62.827 112.396,63.284 110.339,63.746 106.780 C 64.462 101.260,64.750 100.070,65.694 98.730 C 66.056 98.217,66.470 97.418,66.614 96.954 C 67.115 95.342,71.495 91.250,73.375 90.637 C 74.315 90.331,75.253 89.947,75.459 89.785 C 77.115 88.481,73.612 88.518,190.169 88.582 L 301.864 88.644 303.729 89.533 M99.443 198.220 C 98.972 199.182,98.886 255.915,99.354 256.480 C 99.938 257.183,188.198 257.183,188.781 256.480 C 189.250 255.915,189.164 199.182,188.693 198.220 C 188.241 197.298,99.895 197.298,99.443 198.220 M188.023 200.452 C 188.392 200.821,188.392 255.450,188.023 255.819 C 187.653 256.188,100.482 256.189,100.113 255.819 C 99.795 255.502,99.519 203.147,99.826 201.460 C 100.006 200.473,100.151 200.365,101.452 200.243 C 104.301 199.975,187.748 200.177,188.023 200.452 " stroke="none" fill="#d4d4d4" fill-rule="evenodd"></path></g></svg>