<?xml version="1.0" standalone="no"?>
<!DOCTYPE svg PUBLIC "-//W3C//DTD SVG 20010904//EN"
 "http://www.w3.org/TR/2001/REC-SVG-20010904/DTD/svg10.dtd">
<svg version="1.0" xmlns="http://www.w3.org/2000/svg"
 width="565.000000pt" height="409.000000pt" viewBox="0 0 565.000000 409.000000"
 preserveAspectRatio="xMidYMid meet">

<g transform="translate(0.000000,409.000000) scale(0.100000,-0.100000)"
fill="#000000" stroke="none">
<path d="M1850 3414 l0 -30 85 -12 c101 -13 136 -30 167 -79 23 -38 23 -39 26
-420 l3 -383 164 0 163 0 5 358 c5 361 10 413 44 461 39 53 85 66 233 65 112
0 146 -4 198 -23 177 -61 258 -180 280 -408 15 -153 -6 -300 -63 -435 -7 -17
3 -18 124 -18 l130 0 40 53 c131 173 149 435 43 616 -71 121 -231 223 -412
262 -89 20 -130 21 -662 23 l-568 1 0 -31z"/>
<path d="M1950 2150 l0 -130 70 0 c57 0 74 4 90 20 27 27 26 75 -3 96 -22 17
-22 19 -5 36 25 25 23 54 -7 83 -20 21 -34 25 -85 25 l-60 0 0 -130z m111 100
c12 -7 19 -21 19 -40 0 -34 -23 -50 -69 -50 -30 0 -31 1 -31 50 0 49 1 50 31
50 17 0 39 -5 50 -10z m25 -135 c14 -21 15 -31 6 -50 -10 -22 -18 -25 -62 -25
l-50 0 0 50 0 50 45 0 c37 0 47 -4 61 -25z"/>
<path d="M2270 2150 c0 -109 2 -130 15 -130 12 0 15 13 15 60 l0 61 68 -3 67
-3 3 -57 c2 -43 7 -58 18 -58 12 0 14 20 12 128 -3 105 -6 127 -18 127 -12 0
-14 -12 -12 -57 l4 -58 -71 0 -71 0 0 60 c0 47 -3 60 -15 60 -13 0 -15 -21
-15 -130z"/>
<path d="M2703 2268 c-16 -22 -96 -238 -90 -244 11 -11 25 6 32 36 6 29 8 30
69 30 62 0 62 0 75 -35 8 -22 19 -35 30 -35 16 0 11 17 -33 127 -29 70 -57
128 -63 130 -5 2 -14 -2 -20 -9z m56 -145 c1 -9 -14 -13 -44 -13 -50 0 -51 2
-31 51 7 19 17 43 21 54 6 17 11 13 31 -30 12 -27 23 -56 23 -62z"/>
<path d="M2969 2276 c-2 -2 -3 -61 -1 -130 3 -102 6 -126 18 -126 11 0 14 15
14 62 l0 62 63 -62 c84 -83 104 -79 28 6 l-60 69 45 44 c50 49 71 79 54 79 -6
0 -36 -28 -68 -61 l-57 -61 -5 58 c-4 50 -16 74 -31 60z"/>
<path d="M3270 2271 c0 -6 19 -11 43 -13 l42 -3 3 -117 c2 -96 5 -118 17 -118
12 0 15 21 15 120 l0 120 45 0 c25 0 45 5 45 10 0 6 -42 10 -105 10 -59 0
-105 -4 -105 -9z"/>
<path d="M3614 2267 c-2 -7 -3 -65 -2 -127 3 -100 5 -115 21 -118 15 -3 17 7
17 105 0 59 -3 118 -6 131 -7 24 -22 29 -30 9z"/>
<path d="M2135 1778 c-2 -7 -6 -155 -7 -328 -3 -311 -3 -316 -26 -353 -31 -50
-65 -66 -167 -79 l-85 -11 0 -31 0 -31 603 0 c642 0 670 2 817 51 313 104 497
365 476 672 -9 128 2 121 -191 119 l-165 -2 -3 -160 c-3 -143 -6 -168 -30
-238 -82 -235 -261 -348 -577 -364 -185 -10 -273 26 -300 119 -7 27 -14 155
-17 346 l-5 302 -160 0 c-118 0 -160 -3 -163 -12z"/>
</g>
</svg>
